<svg xmlns="http://www.w3.org/2000/svg" viewBox="0 0 1536 1536">
  <defs>
    <linearGradient id="grad1" x1="0%" y1="100%" x2="100%" y2="0%">
      <stop offset="0%" stop-color="#067c47" />
      <stop offset="50%" stop-color="#0b9750" />
      <stop offset="100%" stop-color="#1dbf5e" />
    </linearGradient>
    <radialGradient id="highlight" cx="50%" cy="25%" r="70%" fx="50%" fy="25%">
      <stop offset="0%" stop-color="#8edfae" stop-opacity="0.4" />
      <stop offset="100%" stop-color="#8edfae" stop-opacity="0" />
    </radialGradient>
    <filter id="dropshadow" x="-20%" y="-20%" width="140%" height="140%">
      <feDropShadow dx="0" dy="8" stdDeviation="8" flood-color="#004b2f" flood-opacity="0.4" />
    </filter>
  </defs>
  <path d="M 657 710 L 437 822 L 426 830 L 426 838 L 444 889 L 475 953 L 505 1001 L 529 1033 L 551 1058 L 599 1104 L 652 1145 L 730 1193 L 757 1206 L 768 1208 L 782 1203 L 831 1177 L 844 1168 L 846 1162 L 787 1127 L 782 1126 L 770 1134 L 763 1134 L 702 1097 L 640 1050 L 602 1013 L 564 967 L 533 919 L 518 891 L 509 869 L 509 862 L 517 856 L 584 822 L 594 820 L 597 886 L 612 912 L 636 944 L 656 966 L 661 966 L 661 713 Z M 921 419 L 542 614 L 525 627 L 532 686 L 539 691 L 684 617 L 731 599 L 733 1015 L 910 1116 L 924 1110 L 981 1054 L 1041 974 L 1087 885 L 1116 793 L 1092 780 L 871 705 L 871 969 L 912 922 L 935 885 L 937 800 L 1020 826 L 1031 833 L 1015 884 L 989 933 L 950 987 L 905 1034 L 799 974 L 799 560 L 918 494 L 1078 554 L 1073 626 L 922 574 L 841 618 L 1127 718 L 1135 692 L 1149 517 L 1140 505 Z M 835 380 L 823 372 L 797 359 L 771 341 L 763 339 L 739 355 L 700 377 L 653 400 L 577 432 L 561 437 L 485 468 L 400 500 L 384 508 L 381 519 L 381 538 L 386 616 L 400 727 L 406 753 L 409 755 L 415 754 L 461 730 L 466 725 L 466 712 L 455 639 L 454 615 L 451 594 L 450 559 L 453 553 L 469 545 L 510 531 L 553 514 L 555 512 L 634 483 L 687 460 L 829 387 L 835 382 Z" fill="url(#grad1)" fill-rule="evenodd" filter="url(#dropshadow)" />
  <path d="M 657 710 L 437 822 L 426 830 L 426 838 L 444 889 L 475 953 L 505 1001 L 529 1033 L 551 1058 L 599 1104 L 652 1145 L 730 1193 L 757 1206 L 768 1208 L 782 1203 L 831 1177 L 844 1168 L 846 1162 L 787 1127 L 782 1126 L 770 1134 L 763 1134 L 702 1097 L 640 1050 L 602 1013 L 564 967 L 533 919 L 518 891 L 509 869 L 509 862 L 517 856 L 584 822 L 594 820 L 597 886 L 612 912 L 636 944 L 656 966 L 661 966 L 661 713 Z M 921 419 L 542 614 L 525 627 L 532 686 L 539 691 L 684 617 L 731 599 L 733 1015 L 910 1116 L 924 1110 L 981 1054 L 1041 974 L 1087 885 L 1116 793 L 1092 780 L 871 705 L 871 969 L 912 922 L 935 885 L 937 800 L 1020 826 L 1031 833 L 1015 884 L 989 933 L 950 987 L 905 1034 L 799 974 L 799 560 L 918 494 L 1078 554 L 1073 626 L 922 574 L 841 618 L 1127 718 L 1135 692 L 1149 517 L 1140 505 Z M 835 380 L 823 372 L 797 359 L 771 341 L 763 339 L 739 355 L 700 377 L 653 400 L 577 432 L 561 437 L 485 468 L 400 500 L 384 508 L 381 519 L 381 538 L 386 616 L 400 727 L 406 753 L 409 755 L 415 754 L 461 730 L 466 725 L 466 712 L 455 639 L 454 615 L 451 594 L 450 559 L 453 553 L 469 545 L 510 531 L 553 514 L 555 512 L 634 483 L 687 460 L 829 387 L 835 382 Z" fill="url(#highlight)" fill-rule="evenodd" />
</svg>